<svg width="41" height="40" viewBox="0 0 41 40" fill="none" xmlns="http://www.w3.org/2000/svg">
    <path
        d="M6.11394 5.62964C6.11394 5.62964 6.69521 2.38389 9.2058 2.38389H12.3162V1.52813C12.3162 1.12285 12.4791 0.73416 12.769 0.447579C13.0589 0.160999 13.4521 0 13.8621 0H26.1801C26.5901 0 26.9834 0.160999 27.2733 0.447579C27.5632 0.73416 27.7261 1.12285 27.7261 1.52813V2.38389H30.8488C31.2238 2.38202 31.5946 2.4612 31.9354 2.61589C32.2761 2.77057 32.5785 2.99702 32.8215 3.27937C33.3833 3.96058 33.7676 4.76755 33.9407 5.62964C33.9407 5.62964 34.9023 10.4341 35.7711 14.5478H32.8709L30.855 5.41876L9.15633 5.40653L7.1528 14.5448H4.20935L6.11394 5.62964ZM40.1244 20.6481C40.1244 21.4582 39.7991 22.2351 39.2199 22.8081C38.6408 23.3812 37.8551 23.7036 37.0357 23.7044L33.9438 35.8469C33.9438 35.8469 33.3625 39.0315 30.8519 39.0315H9.20889C6.69521 39.0315 6.11703 35.8469 6.11703 35.8469L2.96951 23.6952C2.16728 23.6646 1.40865 23.3264 0.854354 22.7523C0.30006 22.1782 -0.00633278 21.4134 9.92582e-05 20.6198C0.0065313 19.8263 0.325283 19.0664 0.888811 18.5011C1.45234 17.9359 2.21636 17.6098 3.01898 17.5918H37.0295C37.8495 17.5918 38.6359 17.9139 39.2158 18.487C39.7956 19.0602 40.1213 19.8375 40.1213 20.6481M12.4059 33.3224L12.3966 29.8841L11.1908 25.1897C11.1615 24.9758 11.09 24.7697 10.9801 24.5831C10.8703 24.3965 10.7244 24.2331 10.5507 24.1023C10.377 23.9715 10.1789 23.8757 9.96779 23.8206C9.75667 23.7654 9.53661 23.7519 9.3202 23.7808C9.10378 23.8097 8.89525 23.8804 8.7065 23.989C8.51774 24.0976 8.35247 24.2418 8.22011 24.4135C8.08776 24.5852 7.99091 24.781 7.9351 24.9897C7.87929 25.1984 7.86562 25.4159 7.89485 25.6298L8.53177 29.8933L9.10995 33.7656C9.1694 34.1976 9.40004 34.5886 9.75113 34.8526C10.1022 35.1165 10.545 35.2318 10.9821 35.173C11.4191 35.1142 11.8147 34.8863 12.0817 34.5392C12.3487 34.1922 12.4653 33.7545 12.4059 33.3224ZM18.5896 25.3853C18.5896 25.1711 18.5469 24.9591 18.4639 24.7612C18.3809 24.5634 18.2592 24.3837 18.1058 24.2324C17.9525 24.0811 17.7704 23.9611 17.5701 23.8795C17.3699 23.7978 17.1552 23.7559 16.9386 23.7563H16.9076C16.7015 23.756 16.4974 23.7963 16.3073 23.875C16.1173 23.9538 15.945 24.0693 15.8007 24.2148C15.6395 24.3659 15.5112 24.5479 15.4234 24.7497C15.3357 24.9514 15.2905 25.1688 15.2906 25.3884V33.5792C15.2906 34.0116 15.4644 34.4263 15.7737 34.7321C16.0831 35.0379 16.5026 35.2097 16.9401 35.2097C17.3776 35.2097 17.7971 35.0379 18.1065 34.7321C18.4158 34.4263 18.5896 34.0116 18.5896 33.5792V25.3853ZM24.7672 25.3853C24.7663 25.0599 24.6666 24.7421 24.4808 24.4734C24.2949 24.2048 24.0317 23.9975 23.7252 23.8786C23.5332 23.7975 23.3265 23.7556 23.1176 23.7556C22.9088 23.7556 22.7021 23.7975 22.5101 23.8786C22.2036 23.9975 21.9403 24.2048 21.7545 24.4734C21.5687 24.7421 21.4689 25.0599 21.4681 25.3853V33.5761C21.4681 34.0085 21.6419 34.4233 21.9513 34.7291C22.2606 35.0348 22.6802 35.2066 23.1176 35.2066C23.5551 35.2066 23.9747 35.0348 24.284 34.7291C24.5934 34.4233 24.7672 34.0085 24.7672 33.5761V25.3853ZM32.1412 25.6298C32.1705 25.4161 32.1568 25.1988 32.1011 24.9903C32.0454 24.7818 31.9486 24.5861 31.8164 24.4146C31.6842 24.243 31.5191 24.0989 31.3306 23.9904C31.142 23.8819 30.9337 23.8112 30.7174 23.7823C30.5012 23.7534 30.2814 23.7669 30.0704 23.822C29.8595 23.8771 29.6616 23.9727 29.488 24.1034C29.3145 24.2341 29.1687 24.3973 29.0589 24.5837C28.9492 24.7701 28.8776 24.976 28.8484 25.1897L27.6395 29.8505L27.6333 33.3224C27.6039 33.5362 27.6173 33.7535 27.6729 33.9621C27.7284 34.1707 27.825 34.3664 27.957 34.5381C28.0891 34.7098 28.2541 34.8541 28.4426 34.9628C28.6311 35.0715 28.8394 35.1424 29.0556 35.1715C29.2718 35.2006 29.4917 35.1873 29.7027 35.1324C29.9137 35.0775 30.1117 34.982 30.2854 34.8515C30.4591 34.7209 30.6051 34.5578 30.715 34.3715C30.825 34.1852 30.8967 33.9793 30.9261 33.7656L32.1412 25.6298Z"
        fill="#F8F8F8" />
</svg>