<svg width="41" height="43" viewBox="0 0 41 43" fill="none" xmlns="http://www.w3.org/2000/svg">
<path d="M38.0711 5.35665H20.2508L24.0286 1.88822L21.964 0L14.6426 6.69581L21.964 13.3916L24.0286 11.5034L20.2508 8.03498H38.0711V32.1399H40.9997V8.03498C40.9997 6.55922 39.6863 5.35665 38.0711 5.35665Z" fill="#F8F8F8"/>
<path d="M32.2146 26.7832H8.78599C7.17089 26.7832 5.85742 25.582 5.85742 24.1049V18.7483C5.85742 17.2712 7.17089 16.0699 8.78599 16.0699H32.2146C33.8297 16.0699 35.1431 17.2712 35.1431 18.7483V24.1049C35.1431 25.582 33.8297 26.7832 32.2146 26.7832ZM8.78599 18.7483V24.1049H32.2146V18.7483H8.78599Z" fill="#F8F8F8"/>
<path d="M13.1786 22.7659C13.9873 22.7659 14.6429 22.1663 14.6429 21.4267C14.6429 20.6871 13.9873 20.0875 13.1786 20.0875C12.3699 20.0875 11.7144 20.6871 11.7144 21.4267C11.7144 22.1663 12.3699 22.7659 13.1786 22.7659Z" fill="#F8F8F8"/>
<path d="M19.0357 29.4617L16.9711 31.3499L20.7489 34.8183H2.92857V10.7134H0V34.8183C0 36.2954 1.31346 37.4966 2.92857 37.4966H20.7489L16.9711 40.9651L19.0357 42.8533L26.3571 36.1575L19.0357 29.4617Z" fill="#F8F8F8"/>
</svg>
