<svg width="40" height="46" viewBox="0 0 40 46" fill="none" xmlns="http://www.w3.org/2000/svg">
<path d="M16.5283 23.8371L12.2475 19.6055L9.91699 21.9092L16.5283 28.4444L29.751 15.374L27.4205 13.0703L16.5283 23.8371Z" fill="#F8F8F8"/>
<path d="M19.834 45.7465L9.62613 40.3664C6.71603 38.8361 4.28246 36.5513 2.58657 33.7572C0.890681 30.9632 -0.00349255 27.7654 1.02518e-05 24.5071V3.26761C0.00088539 2.40125 0.349442 1.57062 0.969186 0.958016C1.58893 0.345408 2.42923 0.000865062 3.30568 0H36.3624C37.2389 0.000865062 38.0792 0.345408 38.6989 0.958016C39.3186 1.57062 39.6672 2.40125 39.6681 3.26761V24.5071C39.6716 27.7654 38.7774 30.9632 37.0815 33.7572C35.3856 36.5513 32.9521 38.8361 30.042 40.3664L19.834 45.7465ZM3.30568 3.26761V24.5071C3.30294 27.1731 4.03475 29.7896 5.42258 32.0756C6.8104 34.3616 8.80182 36.2309 11.1831 37.4828L19.834 42.0427L28.485 37.4844C30.8665 36.2324 32.8581 34.3629 34.2459 32.0765C35.6338 29.7902 36.3654 27.1734 36.3624 24.5071V3.26761H3.30568Z" fill="#F8F8F8"/>
</svg>
